<svg width="320" height="140" viewBox="0 0 320 140" fill="none" xmlns="http://www.w3.org/2000/svg">
<rect width="320" height="140" rx="16" fill="white"/>
<path d="M77.256 63.392H70.272V95H60.048V63.392H55.512V55.112H60.048V53.096C60.048 48.2 61.44 44.6 64.224 42.296C67.008 39.992 71.208 38.912 76.824 39.056V47.552C74.376 47.504 72.672 47.912 71.712 48.776C70.752 49.64 70.272 51.2 70.272 53.456V55.112H77.256V63.392ZM100.132 95.648C96.2923 95.648 92.8363 94.808 89.7643 93.128C86.6923 91.4 84.2683 88.976 82.4923 85.856C80.7643 82.736 79.9003 79.136 79.9003 75.056C79.9003 70.976 80.7883 67.376 82.5643 64.256C84.3883 61.136 86.8603 58.736 89.9803 57.056C93.1003 55.328 96.5803 54.464 100.42 54.464C104.26 54.464 107.74 55.328 110.86 57.056C113.98 58.736 116.428 61.136 118.204 64.256C120.028 67.376 120.94 70.976 120.94 75.056C120.94 79.136 120.004 82.736 118.132 85.856C116.308 88.976 113.812 91.4 110.644 93.128C107.524 94.808 104.02 95.648 100.132 95.648ZM100.132 86.864C101.956 86.864 103.66 86.432 105.244 85.568C106.876 84.656 108.172 83.312 109.132 81.536C110.092 79.76 110.572 77.6 110.572 75.056C110.572 71.264 109.564 68.36 107.548 66.344C105.58 64.28 103.156 63.248 100.276 63.248C97.3963 63.248 94.9723 64.28 93.0043 66.344C91.0843 68.36 90.1243 71.264 90.1243 75.056C90.1243 78.848 91.0603 81.776 92.9323 83.84C94.8523 85.856 97.2523 86.864 100.132 86.864ZM150.582 95L137.046 78.008V95H126.966V41.72H137.046V72.032L150.438 55.112H163.542L145.974 75.128L163.686 95H150.582ZM205.301 55.112V95H195.149V89.96C193.853 91.688 192.149 93.056 190.037 94.064C187.973 95.024 185.717 95.504 183.269 95.504C180.149 95.504 177.389 94.856 174.989 93.56C172.589 92.216 170.693 90.272 169.301 87.728C167.957 85.136 167.285 82.064 167.285 78.512V55.112H177.365V77.072C177.365 80.24 178.157 82.688 179.741 84.416C181.325 86.096 183.485 86.936 186.221 86.936C189.005 86.936 191.189 86.096 192.773 84.416C194.357 82.688 195.149 80.24 195.149 77.072V55.112H205.301ZM229.143 95.648C225.879 95.648 222.951 95.072 220.359 93.92C217.767 92.72 215.703 91.112 214.167 89.096C212.679 87.08 211.863 84.848 211.719 82.4H221.871C222.063 83.936 222.807 85.208 224.103 86.216C225.447 87.224 227.103 87.728 229.071 87.728C230.991 87.728 232.479 87.344 233.535 86.576C234.639 85.808 235.191 84.824 235.191 83.624C235.191 82.328 234.519 81.368 233.175 80.744C231.879 80.072 229.791 79.352 226.911 78.584C223.935 77.864 221.487 77.12 219.567 76.352C217.695 75.584 216.063 74.408 214.671 72.824C213.327 71.24 212.655 69.104 212.655 66.416C212.655 64.208 213.279 62.192 214.527 60.368C215.823 58.544 217.647 57.104 219.999 56.048C222.399 54.992 225.207 54.464 228.423 54.464C233.175 54.464 236.967 55.664 239.799 58.064C242.631 60.416 244.191 63.608 244.479 67.64H234.831C234.687 66.056 234.015 64.808 232.815 63.896C231.663 62.936 230.103 62.456 228.135 62.456C226.311 62.456 224.895 62.792 223.887 63.464C222.927 64.136 222.447 65.072 222.447 66.272C222.447 67.616 223.119 68.648 224.463 69.368C225.807 70.04 227.895 70.736 230.727 71.456C233.607 72.176 235.983 72.92 237.855 73.688C239.727 74.456 241.335 75.656 242.679 77.288C244.071 78.872 244.791 80.984 244.839 83.624C244.839 85.928 244.191 87.992 242.895 89.816C241.647 91.64 239.823 93.08 237.423 94.136C235.071 95.144 232.311 95.648 229.143 95.648ZM256.209 95.504C254.385 95.504 252.873 94.952 251.673 93.848C250.521 92.696 249.945 91.28 249.945 89.6C249.945 87.92 250.521 86.528 251.673 85.424C252.873 84.272 254.385 83.696 256.209 83.696C257.985 83.696 259.449 84.272 260.601 85.424C261.753 86.528 262.329 87.92 262.329 89.6C262.329 91.28 261.753 92.696 260.601 93.848C259.449 94.952 257.985 95.504 256.209 95.504Z" fill="#202122"/>
</svg>
