<svg width="80" height="80" viewBox="0 0 80 80" fill="none" xmlns="http://www.w3.org/2000/svg">
<rect width="80" height="80" rx="16" fill="#EAEAEA"/>
<g clip-path="url(#clip0_1_502)">
<path d="M54.875 12H25.125C17.8763 12 12 17.8763 12 25.125V54.875C12 62.1237 17.8763 68 25.125 68H54.875C62.1237 68 68 62.1237 68 54.875V25.125C68 17.8763 62.1237 12 54.875 12Z" fill="#242938"/>
<mask id="mask0_1_502" style="mask-type:luminance" maskUnits="userSpaceOnUse" x="25" y="18" width="30" height="44">
<path d="M54.5163 18.125H25.3438V61.875H54.5163V18.125Z" fill="white"/>
</mask>
<g mask="url(#mask0_1_502)">
<path d="M32.6384 61.875C36.6634 61.875 39.93 58.6084 39.93 54.5834V47.2916H32.6384C28.6134 47.2916 25.3467 50.5584 25.3467 54.5834C25.3467 58.6084 28.6134 61.875 32.6384 61.875Z" fill="#0ACF83"/>
<path d="M25.3467 40C25.3467 35.975 28.6134 32.7083 32.6384 32.7083H39.93V47.2916H32.6384C28.6134 47.2916 25.3467 44.025 25.3467 40Z" fill="#A259FF"/>
<path d="M25.3467 25.4167C25.3467 21.3917 28.6134 18.125 32.6384 18.125H39.93V32.7083H32.6384C28.6134 32.7083 25.3467 29.4417 25.3467 25.4167Z" fill="#F24E1E"/>
<path d="M39.93 18.125H47.2216C51.2466 18.125 54.5134 21.3917 54.5134 25.4167C54.5134 29.4417 51.2466 32.7083 47.2216 32.7083H39.93V18.125Z" fill="#FF7262"/>
<path d="M54.5134 40C54.5134 44.025 51.2466 47.2916 47.2216 47.2916C43.1966 47.2916 39.93 44.025 39.93 40C39.93 35.975 43.1966 32.7083 47.2216 32.7083C51.2466 32.7083 54.5134 35.975 54.5134 40Z" fill="#1ABCFE"/>
</g>
</g>
<defs>
<clipPath id="clip0_1_502">
<rect width="56" height="56" fill="white" transform="translate(12 12)"/>
</clipPath>
</defs>
</svg>
