<svg width="360" height="200" viewBox="0 0 360 200" fill="none" xmlns="http://www.w3.org/2000/svg">
<rect width="360" height="200" rx="32" fill="url(#paint0_linear_286_1016)"/>
<path d="M97.256 93.392H90.272V125H80.048V93.392H75.512V85.112H80.048V83.096C80.048 78.2 81.44 74.6 84.224 72.296C87.008 69.992 91.208 68.912 96.824 69.056V77.552C94.376 77.504 92.672 77.912 91.712 78.776C90.752 79.64 90.272 81.2 90.272 83.456V85.112H97.256V93.392ZM120.132 125.648C116.292 125.648 112.836 124.808 109.764 123.128C106.692 121.4 104.268 118.976 102.492 115.856C100.764 112.736 99.9003 109.136 99.9003 105.056C99.9003 100.976 100.788 97.376 102.564 94.256C104.388 91.136 106.86 88.736 109.98 87.056C113.1 85.328 116.58 84.464 120.42 84.464C124.26 84.464 127.74 85.328 130.86 87.056C133.98 88.736 136.428 91.136 138.204 94.256C140.028 97.376 140.94 100.976 140.94 105.056C140.94 109.136 140.004 112.736 138.132 115.856C136.308 118.976 133.812 121.4 130.644 123.128C127.524 124.808 124.02 125.648 120.132 125.648ZM120.132 116.864C121.956 116.864 123.66 116.432 125.244 115.568C126.876 114.656 128.172 113.312 129.132 111.536C130.092 109.76 130.572 107.6 130.572 105.056C130.572 101.264 129.564 98.36 127.548 96.344C125.58 94.28 123.156 93.248 120.276 93.248C117.396 93.248 114.972 94.28 113.004 96.344C111.084 98.36 110.124 101.264 110.124 105.056C110.124 108.848 111.06 111.776 112.932 113.84C114.852 115.856 117.252 116.864 120.132 116.864ZM170.582 125L157.046 108.008V125H146.966V71.72H157.046V102.032L170.438 85.112H183.542L165.974 105.128L183.686 125H170.582ZM225.301 85.112V125H215.149V119.96C213.853 121.688 212.149 123.056 210.037 124.064C207.973 125.024 205.717 125.504 203.269 125.504C200.149 125.504 197.389 124.856 194.989 123.56C192.589 122.216 190.693 120.272 189.301 117.728C187.957 115.136 187.285 112.064 187.285 108.512V85.112H197.365V107.072C197.365 110.24 198.157 112.688 199.741 114.416C201.325 116.096 203.485 116.936 206.221 116.936C209.005 116.936 211.189 116.096 212.773 114.416C214.357 112.688 215.149 110.24 215.149 107.072V85.112H225.301ZM249.143 125.648C245.879 125.648 242.951 125.072 240.359 123.92C237.767 122.72 235.703 121.112 234.167 119.096C232.679 117.08 231.863 114.848 231.719 112.4H241.871C242.063 113.936 242.807 115.208 244.103 116.216C245.447 117.224 247.103 117.728 249.071 117.728C250.991 117.728 252.479 117.344 253.535 116.576C254.639 115.808 255.191 114.824 255.191 113.624C255.191 112.328 254.519 111.368 253.175 110.744C251.879 110.072 249.791 109.352 246.911 108.584C243.935 107.864 241.487 107.12 239.567 106.352C237.695 105.584 236.063 104.408 234.671 102.824C233.327 101.24 232.655 99.104 232.655 96.416C232.655 94.208 233.279 92.192 234.527 90.368C235.823 88.544 237.647 87.104 239.999 86.048C242.399 84.992 245.207 84.464 248.423 84.464C253.175 84.464 256.967 85.664 259.799 88.064C262.631 90.416 264.191 93.608 264.479 97.64H254.831C254.687 96.056 254.015 94.808 252.815 93.896C251.663 92.936 250.103 92.456 248.135 92.456C246.311 92.456 244.895 92.792 243.887 93.464C242.927 94.136 242.447 95.072 242.447 96.272C242.447 97.616 243.119 98.648 244.463 99.368C245.807 100.04 247.895 100.736 250.727 101.456C253.607 102.176 255.983 102.92 257.855 103.688C259.727 104.456 261.335 105.656 262.679 107.288C264.071 108.872 264.791 110.984 264.839 113.624C264.839 115.928 264.191 117.992 262.895 119.816C261.647 121.64 259.823 123.08 257.423 124.136C255.071 125.144 252.311 125.648 249.143 125.648ZM276.209 125.504C274.385 125.504 272.873 124.952 271.673 123.848C270.521 122.696 269.945 121.28 269.945 119.6C269.945 117.92 270.521 116.528 271.673 115.424C272.873 114.272 274.385 113.696 276.209 113.696C277.985 113.696 279.449 114.272 280.601 115.424C281.753 116.528 282.329 117.92 282.329 119.6C282.329 121.28 281.753 122.696 280.601 123.848C279.449 124.952 277.985 125.504 276.209 125.504Z" fill="#202122"/>
<defs>
<linearGradient id="paint0_linear_286_1016" x1="1.85108e-06" y1="0.539596" x2="373.851" y2="168.66" gradientUnits="userSpaceOnUse">
<stop stop-color="#FBF8F0"/>
<stop offset="0.5" stop-color="#DEC1DB"/>
<stop offset="0.75" stop-color="#FDE8D3"/>
<stop offset="1" stop-color="#FDF6EE"/>
</linearGradient>
</defs>
</svg>
