<svg width="53" height="53" viewBox="0 0 53 53" fill="none" xmlns="http://www.w3.org/2000/svg">
<g style="mix-blend-mode:luminosity">
<path d="M40.5781 0H12.4219C5.56146 0 0 5.56146 0 12.4219V40.5781C0 47.4385 5.56146 53 12.4219 53H40.5781C47.4385 53 53 47.4385 53 40.5781V12.4219C53 5.56146 47.4385 0 40.5781 0Z" fill="#242938"/>
<g clip-path="url(#clip0_346_1412)">
<path d="M26.5003 46.375C37.4769 46.375 46.3753 37.4767 46.3753 26.5C46.3753 15.5233 37.4769 6.625 26.5003 6.625C15.5236 6.625 6.62526 15.5233 6.62526 26.5C6.62526 37.4767 15.5236 46.375 26.5003 46.375Z" fill="#F1F1F2"/>
<path d="M39.6425 41.4106L21.8947 18.55H18.551V34.4435H21.2261V21.9471L37.5422 43.0282C38.2774 42.5362 38.979 41.9958 39.6425 41.4106Z" fill="url(#paint0_linear_346_1412)"/>
<path d="M32.0219 18.55H34.6718V34.45H32.0219V18.55Z" fill="url(#paint1_linear_346_1412)"/>
</g>
</g>
<defs>
<linearGradient id="paint0_linear_346_1412" x1="30.6968" y1="32.352" x2="38.5364" y2="42.0687" gradientUnits="userSpaceOnUse">
<stop/>
<stop offset="1" stop-opacity="0"/>
</linearGradient>
<linearGradient id="paint1_linear_346_1412" x1="33.3468" y1="18.55" x2="33.3024" y2="30.2265" gradientUnits="userSpaceOnUse">
<stop/>
<stop offset="1" stop-opacity="0"/>
</linearGradient>
<clipPath id="clip0_346_1412">
<rect width="39.75" height="39.75" fill="white" transform="translate(6.62555 6.625)"/>
</clipPath>
</defs>
</svg>
